<?xml version="1.0" standalone="no"?>
<!DOCTYPE svg PUBLIC "-//W3C//DTD SVG 20010904//EN"
 "http://www.w3.org/TR/2001/REC-SVG-20010904/DTD/svg10.dtd">
<svg version="1.0" xmlns="http://www.w3.org/2000/svg"
 width="800.000000pt" height="800.000000pt" viewBox="0 0 800.000000 800.000000"
 preserveAspectRatio="xMidYMid meet">

<g transform="translate(0.000000,800.000000) scale(0.100000,-0.100000)"
fill="#000000" stroke="none">
<path d="M2950 5349 c-288 -27 -527 -106 -745 -246 -53 -34 -225 -200 -695
-672 l-625 -626 434 -3 435 -2 390 388 c215 214 421 410 458 435 107 76 203
113 373 143 22 4 579 7 1237 8 l1198 1 292 293 293 292 -1475 -1 c-811 -1
-1518 -6 -1570 -10z"/>
<path d="M5412 4583 l-770 -778 461 -3 462 -2 695 697 c382 383 731 734 774
780 l80 83 -466 0 -466 0 -770 -777z"/>
<path d="M2990 4659 c-123 -15 -224 -55 -330 -132 -30 -22 -206 -190 -390
-373 l-335 -334 400 0 400 1 127 119 c89 83 147 128 191 150 117 58 146 59
977 60 l755 0 260 260 260 260 -1120 -1 c-616 -1 -1154 -5 -1195 -10z"/>
<path d="M880 3100 l0 -460 70 0 70 0 0 200 0 200 260 0 260 0 0 65 0 65 -260
0 -260 0 0 125 0 125 273 2 272 3 0 65 0 65 -342 3 -343 2 0 -460z"/>
<path d="M5017 3554 c-4 -4 -7 -212 -7 -461 l0 -454 73 3 72 3 0 455 0 455
-65 3 c-36 2 -69 0 -73 -4z"/>
<path d="M6298 3554 c-5 -4 -8 -33 -8 -65 l0 -58 113 -3 112 -3 3 -327 2 -327
-127 -3 -128 -3 -3 -62 -3 -63 321 0 320 0 0 65 0 65 -120 0 -120 0 0 346 c0
451 8 435 -225 442 -71 2 -133 0 -137 -4z"/>
<path d="M1782 3354 c-56 -28 -91 -63 -125 -128 -19 -36 -22 -60 -25 -188 -5
-191 8 -241 81 -315 74 -73 124 -86 315 -81 142 3 149 4 201 33 61 34 114 98
131 161 8 26 11 100 8 200 -4 177 -13 207 -80 271 -65 63 -104 73 -289 73
-158 0 -167 -1 -217 -26z m378 -106 c70 -48 75 -63 75 -231 0 -134 -2 -156
-20 -186 -39 -66 -62 -76 -200 -79 -108 -3 -128 -1 -163 17 -72 37 -82 65 -82
243 0 145 2 157 23 189 38 57 75 69 213 69 109 0 124 -2 154 -22z"/>
<path d="M2557 3345 c-71 -49 -72 -53 -75 -397 l-3 -308 70 0 71 0 0 279 c0
347 -10 324 149 329 l111 4 0 59 0 59 -143 0 c-136 0 -144 -1 -180 -25z"/>
<path d="M2990 3005 l0 -365 65 0 65 0 0 255 c0 352 2 355 187 355 69 -1 114
-5 124 -13 36 -28 39 -51 39 -326 l0 -271 65 0 65 0 0 260 c0 277 6 316 48
339 12 6 73 11 137 11 110 0 117 -1 140 -25 l25 -24 0 -281 0 -280 70 0 70 0
0 279 c0 294 -3 320 -48 380 -43 58 -94 73 -237 69 -121 -3 -124 -4 -154 -32
-16 -16 -33 -42 -36 -57 -6 -27 -25 -41 -25 -20 0 20 -56 75 -95 92 -30 14
-65 19 -138 19 -113 0 -149 -11 -194 -64 -18 -20 -35 -36 -38 -36 -3 0 -5 23
-5 50 l0 50 -65 0 -65 0 0 -365z"/>
<path d="M4222 3088 c3 -254 5 -287 22 -318 26 -49 55 -79 101 -103 37 -20 57
-22 278 -25 l237 -4 0 366 0 366 -70 0 -70 0 0 -295 0 -295 -153 0 c-173 0
-189 5 -207 68 -5 21 -10 143 -10 280 l0 242 -66 0 -65 0 3 -282z"/>
<path d="M5290 3310 l0 -60 228 -2 227 -3 -35 -21 c-119 -72 -360 -232 -389
-258 -43 -40 -61 -83 -61 -147 0 -71 35 -130 93 -158 41 -20 60 -21 311 -21
l267 0 -3 298 c-3 327 -4 332 -68 385 -48 41 -90 47 -337 47 l-233 0 0 -60z
m500 -355 l0 -195 -173 0 c-189 0 -206 4 -225 59 -19 55 6 81 208 211 102 66
186 120 188 120 1 0 2 -88 2 -195z"/>
</g>
</svg>
